<?xml version="1.0" encoding="UTF-8"?>
<svg id="Layer_1" xmlns="http://www.w3.org/2000/svg" version="1.1" viewBox="0 0 159 40">
  <!-- Generator: Adobe Illustrator 30.0.0, SVG Export Plug-In . SVG Version: 2.1.1 Build 123)  -->
  <defs>
    <style>
      .st0 {
        fill: #00ada8;
      }

      .st1 {
        fill: #057973;
      }

      .st2 {
        fill: #333;
      }
    </style>
  </defs>
  <path class="st2" d="M63.5,27.77h-12.56l-2.17,6.14h-5.15L54.34,3.87h5.71l10.72,30.04h-5.2l-2.17-6.14h.09ZM62.13,23.75l-4.86-13.93-4.91,13.93h9.78Z"/>
  <path class="st2" d="M81.21,14.12v13.18c0,.9.19,1.51.61,1.94.43.38,1.13.57,2.13.57h3.02v4.11h-3.87c-2.22,0-3.92-.52-5.1-1.56-1.18-1.04-1.75-2.74-1.75-5.05v-13.18h-2.79v-4.01h2.79v-5.9h4.96v5.9h5.76v4.01h-5.76Z"/>
  <path class="st2" d="M91.37,15.53c.99-1.84,2.36-3.26,4.06-4.3s3.59-1.51,5.67-1.51c1.89,0,3.49.38,4.91,1.09,1.42.76,2.5,1.65,3.35,2.74v-3.45h4.96v23.76h-4.96v-3.54c-.85,1.13-1.98,2.08-3.4,2.79-1.42.76-3.07,1.13-4.91,1.13-2.03,0-3.92-.52-5.62-1.56-1.7-1.04-3.02-2.5-4.01-4.39s-1.51-4.01-1.51-6.42.52-4.49,1.51-6.33h-.05ZM108.32,17.71c-.66-1.23-1.56-2.13-2.64-2.74s-2.27-.94-3.54-.94-2.46.33-3.54.94-1.98,1.51-2.64,2.74c-.66,1.18-.99,2.6-.99,4.25s.33,3.07.99,4.3,1.56,2.17,2.69,2.83c1.09.66,2.27.99,3.49.99s2.46-.33,3.54-.94,1.98-1.56,2.64-2.79c.66-1.23.99-2.64.99-4.3s-.33-3.07-.99-4.25v-.09Z"/>
  <path class="st2" d="M128.58,10.72c1.18-.66,2.6-.99,4.25-.99v5.1h-1.23c-1.94,0-3.4.47-4.39,1.46-.99.99-1.51,2.69-1.51,5.1v12.52h-4.91V10.15h4.91v3.45c.71-1.23,1.65-2.17,2.88-2.83v-.05Z"/>
  <path class="st2" d="M158.86,10.1v23.76h-4.91v-2.79c-.76.99-1.79,1.75-3.02,2.31-1.23.57-2.6.85-3.97.85-1.89,0-3.54-.38-5.01-1.18-1.46-.76-2.64-1.94-3.49-3.45-.85-1.51-1.28-3.35-1.28-5.53v-13.98h4.86v13.22c0,2.13.52,3.78,1.61,4.91s2.5,1.7,4.35,1.7,3.31-.57,4.39-1.7c1.09-1.13,1.61-2.79,1.61-4.91v-13.22h4.91-.05Z"/>
  <path class="st0" d="M20.69,16.2l9.63,16.53c1.65,2.88,6.14.57,4.68-2.41,0-.09-.09-.14-.14-.24L20.69,5.76c-1.37-2.31-4.72-2.31-6.09,0L.43,30.08s-.09.14-.14.24c-1.46,2.98,2.98,5.29,4.68,2.41l9.63-16.53c1.37-2.31,4.72-2.31,6.09,0Z"/>
  <path class="st1" d="M16.63,21.72l-6.05,10.48c-.47.8.14,1.84,1.09,1.84h12.14c.94,0,1.56-1.04,1.09-1.84l-6.05-10.48c-.47-.8-1.65-.8-2.13,0h-.09Z"/>
</svg>