<?xml version="1.0" encoding="UTF-8"?>
<svg data-bbox="6.545 10.945 58.91 50.105" viewBox="0 0 72 72" xmlns="http://www.w3.org/2000/svg" data-type="color">
    <g>
        <path d="m41.09 31.26 16.08 27.58c2.76 4.81 10.25.95 7.8-4.02 0-.16-.16-.24-.24-.39L41.09 13.84c-2.29-3.86-7.88-3.86-10.17 0L7.27 54.43s-.16.24-.24.39c-2.44 4.97 4.97 8.83 7.8 4.02l16.08-27.58c2.29-3.86 7.88-3.86 10.17 0Z" fill="#00ada8" data-color="1"/>
        <path d="m34.31 40.48-10.09 17.5c-.79 1.34.24 3.07 1.81 3.07h20.25c1.58 0 2.6-1.73 1.81-3.07L38 40.48c-.79-1.34-2.76-1.34-3.55 0h-.16Z" fill="#057973" data-color="2"/>
    </g>
</svg>
